<svg width="1024" height="1024" viewBox="0 0 1024 1024" fill="none" xmlns="http://www.w3.org/2000/svg" class="jss33"><rect width="1024" height="1024" rx="240" fill="#E50000"></rect><path d="M512 619.4H256.5V642.9C256.5 642.9 375.5 649.7 395.2 740.7H512H628.8C648.5 649.7 767.5 642.9 767.5 642.9V619.4H512Z" fill="white"></path><path d="M622.7 761.1C615.1 759.6 608.3 764.1 606 771.7L590.8 859.6H567.3L578.7 776.2C579.5 768.6 574.2 761.8 566.6 761C559 760.2 552.2 765.5 551.4 773.1L545.3 859.5H521.8L524.1 774.6C524.1 767 518 761 510.5 761C502.9 761 496.9 767.1 496.9 774.6L499.2 859.5H475.7L469.6 773.1C468.8 765.5 462 760.2 454.4 761C446.8 761.8 441.5 768.6 442.3 776.2L453.7 859.6H430.2L415 771.8C413.5 764.2 405.9 759.7 398.3 761.2C390.7 762.7 386.2 770.3 387.7 777.1L406.7 859.7H418C421.8 878.7 424.1 890.8 424.8 898.4H444.5C445.6 911.4 450.9 963.3 457.5 1024H564.4C570.8 963.1 576.3 911.4 577.9 898.4H597.6C599.1 890.8 601.4 877.9 604.4 859.7H615.8L634.8 777.1C635.6 770.2 630.3 762.7 622.7 761.1Z" fill="white"></path><path d="M544.8 231.7C556.1 220.4 564.6 190.3 564.6 175.2C587.2 204.4 593.8 252.4 595.7 288.1C605.1 281.5 611.7 254.2 610.8 242C638.1 283.4 656 340.8 650.3 385.1C640.9 473.6 534.5 528.2 511.9 582.7C430.9 500 381 437.9 373.5 385.2C361.3 287.3 501.5 213 511.9 102.8C537.3 134.8 544.8 190.3 544.8 231.7Z" fill="white"></path></svg>